# xmcd
# 
# Track frame offsets:
#     150
#     26036
#     45009
#     74172
#     100918
#     121768
#     143765
#     165140
#     183482
# 
# Disc length: 2719
# 
# Revision: 1
# Processed by: cddbd v1.5.2PL0 Copyright (c) Steve Scherf et al.
# Submitted via: BonkEnc v1.0.8
# 
DISCID=6e0a9d09
DTITLE=Attila Zoller - Zo-Ko-Ma
DYEAR=1968
DGENRE=Free, Avant
TTITLE0=Zores Mores (tutti)
TTITLE1=Feeling-in and Filing-in in Villingen (trio as/tb/g)
TTITLE2=Ach! Tavia - Skertzo - Alicia's Lullaby (soli as-tb-g)
TTITLE3=At Twighlite (tutti)
TTITLE4=Struwwelpeter (tutti)
TTITLE5=Alat's Mood (duo tb/g)
TTITLE6=Freeline Fräulein (duo tb/g)
TTITLE7=Danke for the Memory (trio as/b/g)
TTITLE8=Rumpelstilzchen (tutti)
EXTD=YEAR: 1968
EXTT0=
EXTT1=
EXTT2=
EXTT3=
EXTT4=
EXTT5=
EXTT6=
EXTT7=
EXTT8=
PLAYORDER=
